<?xml version="1.0" encoding="UTF-8"?><svg id="Layer_2" xmlns="http://www.w3.org/2000/svg" width="686" height="315.05" viewBox="0 0 686 315.05"><defs><style>.cls-1{fill:#ebc78c;fill-rule:evenodd;}</style></defs><g id="Layer_1-2"><g><path class="cls-1" d="m127.4,241.24c-17.85,3.69-35.31,1.42-51.81-1.76-20.4-3.95-36.08-10.13-52.61-16.09,17.24,8.63,75.11,29.17,106.64,19.18l-2.22-1.33Z"/><path class="cls-1" d="m135.21,227.63c-20.82-6.6-41.98-9.22-62.57-10.18-27.51-1.28-49.62,1.43-72.64,3.11,23.47-3.89,97.69-9.03,137.77,5.72-.99.44-1.93.91-2.57,1.36h0Z"/><path class="cls-1" d="m528.21,134.27c-8.7-6.93-19.11-13.67-19.11-13.67,12.42,1.12,17.38,1.38,31.54,5.01,4.35,1.11,8.08,3.91,10.63,5.89-9.64-3.52-26.71-7.51-27.96-6.79-1.25.73,4.69,7.32,10.47,10.77,5.78,3.45,9.84,3.29,13.79,3.47-4.98,1.15-11.42,1.66-19.36-4.67h0Zm45.26-12.36c-8.36,4.13-18.68,11.13-20.75,12.12-3.26,1.54.61,9.44,4.61,11.4,2.01,1,7.69-7.95,14.8-13.78,4.43-3.63,8.49-5.64,10.55-7.91-11.37,4.05-23.08,18.03-24.59,17.14-1.51-.89-2.01-2.29-1.08-5.33.92-3.04,7.14-7.04,16.46-13.64h0Z"/><path class="cls-1" d="m156.07,220.02c-12.94-2.42-25.96-2.71-38.31-2.23-20.76.81-36.57,4.51-53.79,7.93,16.51-5.34,67.02-15.27,98.58-6.53-2.29.24-4.45.52-6.48.83h0Z"/><path class="cls-1" d="m112.83,233.39c-21.89-2.05-62.73-5.64-62.33-5.4.45.27,35.39,4.23,50.85,5.67,5.78.54,10.69,1.67,14.16,1.69l-3.13-1.25s.11-.12.45-.7h0Z"/><path class="cls-1" d="m160.46,236.97c-12.74-.52-26.82,5.38-34.63,3.77-8.16-1.69,20.03,13.51,36.45,8.18,5.6-1.81,9-3.82,10.49-5.65-6.15,3.88-19.41,5.24-26.03,4.21-6.62-1.03-15.05-4.69-7.53-5.9,7.52-1.21,12.97-3.16,21.26-4.62h0Z"/><path class="cls-1" d="m144.41,236.91c-6.88,3.8-20.87,2.83-32.09-2.01-6.26-2.71,3.25-5.55,13.64-5.76-6.71.84-7.79,2.28-8.42,3.88-.64,1.6,14.65,6.71,26.87,3.88h0Z"/><path class="cls-1" d="m192.14,237.47c3.54-1.91,5.47-4.15,6-6.41-11.79,12.47-28.22,4.18-38.2.98-9.97-3.2-21.52-.15-21.22-2.36.3-2.21,7.79-4.47,19.05-6.85,11.26-2.39,25.94-3.79,38.39,2.16-3.93-4.2-13.05-7.27-25.58-6.48-24.19,1.53-36.42,6.51-40.13,10.87-3.71,4.37,9.81,4.91,22.17,4.89,12.34-.01,24.91,10.8,39.51,3.19h0Z"/><path class="cls-1" d="m184.23,243.94c-18.3,15.75-41.35,20.78-62.95,24.07-21.61,3.27-39.36,2.64-57.86,2.66,22.62,2.49,101.33,1.59,120.81-26.73h0Z"/><path class="cls-1" d="m201.95,235.32c-13.16,3.39-30.06,12.77-36.11,20.85,0,0,8.57-.98,12.88.69,4.33,1.66,18.15,9.22,32.99,5.87,11.76-2.64,23.84-8.7,25.58-15.76-6.16,7.05-18.9,12.44-29.83,13.73-7.2.86-13.33-1.18-15.77-2.3-5.26-2.41-16-3.59-9.7-9.21,4.74-4.22,8.91-7.95,19.97-13.88h0Z"/><path class="cls-1" d="m195.6,219.46c-27.45-9.44-58.76-11.21-87.29-11.78-32.44-.66-57.38,1.94-84.68,4.12,29.71-4.68,127.12-12.1,170.75,5.37l1.22,2.3Z"/><path class="cls-1" d="m201.47,209.04c-13.03-5.15-24.96-7.29-37.99-8.94-20.59-2.62-38.54-2.01-56.1-1.47,16.95-2.53,67.42-4,97.26,9.3l-.74.04s-1.05.4-2.43,1.07h0Z"/><path class="cls-1" d="m244.48,241.82c-12.13,1.91-27.61-3.32-37.46-9.97-10.76-7.28-14.74-16.43-16.84-18.77-.97-1.08,4.4-2.31,11.04-3.09-5.23,2.17-4.76,2.82-5.39,4.4-.63,1.57,7.81,12.26,20.55,19.43,12.74,7.17,20.36,8.5,28.1,8h0Z"/><path class="cls-1" d="m199.84,208.17c9.27,5.88,17.15,19.75,27.12,27.15,7.16,5.34,17.08,5.71,21.53,5.02,4.29-.68,8.11-2.37,10.43-4.82-10.25,4.21-19.02,2.83-26.53-1.05-15.01-7.77-21.65-23.07-21.61-23.1,1.78-1.45,10.7-1.42,18.1.12,7.4,1.55,24.43,6.17,32.23,17.09-.45-2.4-2.03-5.06-5.09-7.9-10.86-10.03-37.37-17.79-56.19-12.51h0Z"/><path class="cls-1" d="m230.66,262.96c-13.14,7.1-26.75,11.09-40.38,14.07-20.29,4.45-37.24,4.88-54.79,5.91,17.34,1.02,68.8-2.1,97.13-18.53-.77-.5-1.43-.99-1.96-1.44h0Z"/><path class="cls-1" d="m263.34,193.32c-12.99-4.63-25.7-6.16-38.57-7.44-20.66-2.05-37.64-1.21-55.18-.2,17.4-3.07,71.51-5.46,101.31,8.36-1.58-.08-3.14,1.03-4.48.88-1.53-.17-2.75-1.6-3.08-1.6h0Z"/><path class="cls-1" d="m282.33,231.16c-9.16-1-18.21-4.11-24.25-9.89-11.51-11.03-22.87-25.68-27.19-26.59-3.3-.7,15.45-.24,31.15,2.58-11.24-.07-13.91,1.99-16.92,2.44-3.01.45,2.16,5.39,9.89,13.22,7.73,7.82,14.95,15.01,27.31,18.24h0Z"/><path class="cls-1" d="m310.38,233.98c.12-.14.25-.28.36-.41-25.86,4.16-38.45-20.64-39.98-27.72-1.53-7.07-.64-8.99,14.13-6.48,14.78,2.51,28.93,12.71,35.56,22.86.2-6.32-12.09-16.96-22.39-22.41-8.97-4.76-25.4-6.05-32-6.38-1.79-.09-2.87-.11-2.87-.11,2.96,7.66,4.4,20.68,15.69,31.12,9.87,9.15,26.46,15.3,31.51,9.54h0Z"/><path class="cls-1" d="m237.07,199.3c-15.97-3.93-30.81-5.3-46.47-5.67-24.59-.58-45.33,2.16-66.04,4.41,18.62-3.9,72.24-9.78,108.93-1.93,1.05.8,2.25,1.89,3.59,3.19h0Z"/><path class="cls-1" d="m299.77,191.84c-15.35-4.36-30.21-5.27-45.23-5.22-21.85.07-39.81,3.28-58.08,6.08,17.45-4.71,70.17-12.71,102.95-3.28.03.22.16,1.37.36,2.43h0Z"/><path class="cls-1" d="m317.99,185.06c-16.28-7.88-32.75-10.21-49.41-11.24-20.73-1.27-38.32,1.01-55.82,2.68,18.9-4.08,80.33-9.56,108.27,8.14-1.84.14-3.06.38-3.06.38l.02.04Z"/><path class="cls-1" d="m314.57,188.14c-8.07-.54-15.16-.43-17.69-.18-4.94.49,20.43,28.6,37.68,35.09,8.38,3.14,16.34,2.43,22.37.31-19.65-.99-26.63-3.73-34.53-9.99-8.24-6.53-16.34-16.63-19.62-19.74-2.04-1.93,2.26-4.2,11.78-5.48h0Z"/><path class="cls-1" d="m344.36,218.74c-10.24-5.34-15.44-15.04-19.36-21.39-6.43-10.41-10.44-13.26-13.85-14.16-3.4-.9,18.5-.99,37.68,5.67,7.9,2.76,19.21,12.33,22.12,20.4-10.29-13.79-25.9-19.57-33.86-20.16-12.17-.92-13.33-.18-10.66,4.58,1.72,3.08,3.87,7.37,9.56,15.53,4.89,7.02,11.28,9.28,24.69,12.2-5.18.7-11.32-.05-16.33-2.66h0Z"/><path class="cls-1" d="m290.91,270.89c-17.98,14.35-40.04,22.39-61.51,29.07-24.99,7.79-46.26,11.14-68.22,15.09,25.15-2.16,105.98-17.13,132.45-44.32-1.49.13-2.45.11-2.45.11l-.28.06Z"/><path class="cls-1" d="m293.4,259.3c-12.62,9.76-26.79,15.94-40.79,20.96-19.56,7.01-36.08,9.54-53.35,12.81,17.84-1.25,70.94-11.5,96.16-32.63-1.16-.09-1.78-.22-1.78-.22l-.24-.91Z"/><path class="cls-1" d="m297.66,261.07c-4.54,6.3-7.44,9.17-9.62,10.74-1.94,1.4,29.73-1.98,47.39-16.6-1.38.75-21.34,9.58-32.09,12.07-4.54,1.05-9.44,2.06-7.36-.92,1.65-2.34.49-2.7,1.67-5.29h0Z"/><path class="cls-1" d="m344.19,252.85c-12.82,12.65-28.58,20.92-43.16,28.13-19.21,9.51-34.59,14.35-51.54,19.79,18.11-3.55,73.27-21.47,96.88-47.41-.73-.12-1.46-.28-2.18-.51h0Z"/><path class="cls-1" d="m393.43,210c-5.45-1.45-12.68-.03-18.98,2.97-9.99,4.74-35.03,34.82-36.2,38.46-1.15,3.64,34.82,13.48,54.1-14.36,2.53-3.67,6.78-12.57,7.97-18.67-4.85,10.05-12.37,20.91-22.71,27.63-10.34,6.72-28.42,5.77-29.87,3.1-1.44-2.67,1.12-4.3,10.8-16.69,9.69-12.38,22.09-22.5,34.89-22.44h0Z"/><path class="cls-1" d="m366.57,172.74c-11.74-3.1-23.31-4.51-34.7-5.24-20.72-1.33-37.13.61-54.62,2.23,16.45-3.5,65.12-7.99,95.86,2.6l-6.54.4Z"/><path class="cls-1" d="m338.1,174.16c-16.36-7.53-33.79-9.17-50.4-9.92-20.75-.93-37.31,1.23-54.77,3.18,18.92-4.42,78.73-10.56,108.82,6.62-1.34.03-2.57.07-3.65.11h0Z"/><path class="cls-1" d="m387.6,205.93c-8.53-.53-16.92-2.93-22.92-7.83-12.37-10.05-24.86-23.74-29.25-24.3-3.26-.42,14.5-1.43,30.13-.04-9.84.07-14.39,2.47-16.79,3.06-2.41.58,6.36,10,10.89,14.6,4.54,4.61,15.81,11.29,27.95,14.51h0Z"/><path class="cls-1" d="m395.75,256.4c-10.12,9.12-21.46,15.86-32.71,21.94-18.27,9.87-33.89,15.13-50.47,20.97,16.76-3.77,64.47-20.66,87.46-43.88-1.89.52-3.35.84-4.28.97h0Z"/><path class="cls-1" d="m402.21,245.49c-3.28,5.92-5.62,8.92-7.49,10.73-2.01,1.94,36.38-7.8,51.91-28.89-17.01,14.01-36.69,22.65-41.77,24.7-5.51,2.22-4.66,2.59-2.65-6.54h0Z"/><path class="cls-1" d="m417.03,162.64c-14.08-4.35-28.88-5.25-42.67-5.61-20.77-.53-36.6,1.78-54.03,4.07,17.36-4.39,71.06-11.29,101.6.94-1.66.18-3.31.38-4.9.6h0Z"/><path class="cls-1" d="m416.07,162.78c-7.11,1.02-13.07,2.32-15.29,3.01-4.73,1.45,25.65,24.04,43.83,27.01,5.17.84,9.94.42,14.12-.74-4.35-.23-5.01.36-15.94-2.58-10.93-2.94-32.47-17.46-33.81-19.98-1.34-2.52-.69-3.52,7.08-6.72h0Z"/><path class="cls-1" d="m453.38,186.66c-11.09-3.23-18.09-11.73-23.18-17.19-8.33-8.93-12.82-10.96-16.34-11.17-3.52-.22,17.95-4.59,38.06-1.81,8.34,1.15,21.4,8.4,25.77,15.78-6.44-4.5-15.15-10.85-29.25-12.72-14.1-1.86-21.74.7-17.83,4.07,3.92,3.38,1.74,3.74,8.29,10.74,6.54,7,10.29,10.1,26.73,12.79-3.98.7-8.31.64-12.25-.51h0Z"/><path class="cls-1" d="m343.68,168.09c20.36-10.34,59.1-23.16,87.57-22.72,6.66.1,11.99.71,16.33.7l2.27-2.84c-37.96-1.9-77.49,8.05-106.18,24.85h0Z"/><path class="cls-1" d="m409.79,134.26c7.53-2.68,17.35-6.05,27.75-6.94,12.12-1.04,24.88.94,33.56,6.2,9.01,5.44,13.06,1.11,11.76-.04-1.2-1.05-9.22-2.58-9.68-2.75-20.78-7.73-45.81-6.49-63.38,3.53h0Z"/><path class="cls-1" d="m504.16,167.89c-18.05,6.17-37.75-12.34-46.21-16.47-8.46-4.13-22.29-5.26-16.89-6.76,9.3-2.62,20.6-5.54,31.79-6.49,1.91-.17,3.82-.27,5.72-.31-12.26,2.05-14.77,5.32-17.38,7.28-2.61,1.96,4.66,5.85,10.41,10.78,5.76,4.93,15.16,10.17,26.33,10.48,9.03.25,13.73-2.83,16.35-5.16-1.44,2.46-4.58,4.75-10.13,6.64h0Z"/><path class="cls-1" d="m527.25,145.67c-3.52-7.74-11.46-13.39-19.77-14.46-12.13-1.57-23.9,2.15-30.02,3.51-6.12,1.38,3.03,8.71,9.04,19.95,2.07,3.88,5.82,7.55,10.51,9.96-5.62-4.23-9.12-12.27-13.11-19.82-3.67-6.92-.43-8.34,3.48-9.05,12.64-2.3,31.05-3.15,38.09,10.28.33.29.65.58.97.87l.82-1.23Z"/><path class="cls-1" d="m460.98,219.92c-10.15,21.13-29.64,33.83-47.41,44.58-17.77,10.73-32.53,16.69-48.8,23.33,20.86-5.78,89.75-34.73,96.2-67.91h0Z"/><path class="cls-1" d="m534.05,150.23c-11.57,4.62-20.9,15.99-21.9,26.76-1.51,15.85-9.26,28.71-4.09,25.7,5.17-2.99,24.64-1.91,39.23-20.02,4.18-5.18,6.29-10.16,7.19-14.62-8.04,11.05-6.64,12.65-21.14,22.01-10.12,6.52-19,9.31-18.51,3.64,1.69-18.07-2.33-26.94,13.78-37.39.2-.25.42-.48.62-.71,1.09-1.17,2.83-3.13,4.81-5.37h0Zm-30.13,21.7c-7,3.66-10.6,5.36-10.77,6.8-.17,1.44,5.07,4.23,5.34,10.4.27,6.15-7.26,9.61-10.61,10.7-3.36,1.09-9.71-.27-11.82-1.81-2.11-1.55-3.04-8.24-.41-13.84,2.64-5.6,13.96-9.47,14.88-9.5.92-.04-9.24-.86-13.51,3.8-4.27,4.65-8.21,14.78-5.03,20.48,3.18,5.7,21.15,4.89,26.63-2.81,5.48-7.7,1.72-12.93.5-13.92-1.22-.99,6.01-10.01,4.8-10.29h0Zm-31.51,9.64c-5.43,3.94-9.46,10.09-10.07,15.91-1.18,11.09-.5,23.84-4.53,28.88-4.05,5.03,2.84,4.13,11.24,1.69,8.38-2.44,20.48-8.18,26.88-22.17.51-1.12.94-2.24,1.27-3.36-13.12,20.73-32.85,22.9-32.08,20.57.77-2.34.3-6.19-.15-15.19-.46-9-.04-13.95,7.45-26.33h0Zm-13.12,12.91c-5.87,1.47-7.29,1.32-10.72,2.5-3.43,1.17-.25,1.16-5.55,1.17-5.29,0,5.18.79,6.26,8.2,1.06,7.33-4.19,16.42-11.34,22.16-7.95,6.38-18.81,8.71-26.93,10.68-5.08,1.24-6.47.97-8.59.46-2.7-.65,15.06-26.72,22.54-33.26,7.47-6.54,12.87-8.41,12.87-8.41,0,0-6.61-.93-20.01,11.48-13.41,12.43-22.6,31.81-22.42,35.06.19,3.25,18.09-2.95,29.03-5.99,10.94-3.05,20.15-9.74,25.29-17.84,5.13-8.1,3.34-12.63,2.53-15.91-.81-3.28,4.66-4.27,7.06-10.3h0Zm-33.88-.97c-2.3-6.28-12.57-14.88-22.13-19.01-11.86-5.1-36.81-3.04-36.81-3.04,3.57,7.39,6.05,20.25,18.14,29.76,9.98,7.86,25.74,12.58,31.29,7.89-4.96,2.62-20.25-1.36-29.59-10.22-9.34-8.85-13.3-20.28-12.64-21.93.66-1.65,3-4.41,14.73-2.5,11.72,1.91,25.55,7.56,37.01,19.06h0Z"/><path class="cls-1" d="m545.94,145.41c-12.9-1.93-18.24,11.98-17,18.59,1.46,7.74,2.09,18.87,2.09,18.87,0,0,29.22-5,25.13-26.27-.18-.96-.37-1.84-.59-2.65-.64,6.59-1.1,12.24-4.45,15.98-6.69,7.47-16.86,7.3-16.86,7.3.15-1.71-1.01-1.82-1.19-6.67-.19-4.85-2.79-12.95,1.83-19.24,3.83-5.21,12.56-4.71,19.09-1.42-1.5-2.5-3.85-3.87-8.05-4.5h0Z"/><path class="cls-1" d="m455.41,253.41c16.14-6.29,41.02-21.66,46.81-39.6,2.4-7.43,4-12.2,4.77-14.88,2.25-7.76,4.02-3.81,3.21-.77-7.03,26.17-24.45,45.85-54.79,55.26h0Z"/><path class="cls-1" d="m601.1,96.28c-10.99,8.97-21.23,18.53-21.03,24.7.24,7.34,12.71-5.65,25.98-17.89,30.72-28.29,56.39-58.73,76.39-95.55,10.23-18.85-4.49,2.66-7.85,9.7-7.39,15.47-54.8,75.69-88.92,99.74-2.53-1.01,28.93-26.44,56.57-58.32,15.62-18,30.03-40.07,36.36-54.92-3.98,6.56-8.53,13.94-14.14,22.96-15.18,24.41-41.39,51.66-63.35,69.56h0Z"/><path class="cls-1" d="m349.4,229.52c2.26-2.92-.23-.09-9.9-3.25-9.66-3.17-15.56.35-23.11,5.94-7.55,5.59-18.44,15.45-22.97,23.75-4.53,8.29-2.15,6.1,2.15,5.91,4.31-.19,12.78-.23,23.4-3.24,10.61-3.01,16.07-5.75,16.07-5.75,0,0-14.26,3.87-25.38,4.36-11.11.49-10.8.33-10.48-2.54.32-2.87,12.27-16.64,23.57-23.07,11.29-6.42,20.22-3.84,21.9.5,1.68,4.36,1.61,5.56,1.99,5.98.38.42-.29-6.12,2.74-8.6h0Z"/><path class="cls-1" d="m292.4,234.17c-4.95-2.72-12.3-3.07-19.15-1.67-10.83,2.2-42.37,25.38-44.37,28.64-2,3.25,30.56,21.44,55.97-.95,3.34-2.96,9.6-10.57,12.21-16.21-7.12,8.59-15.19,17.03-26.84,21.07-11.65,4.04-30.74-.11-31.5-3.05-.77-2.94,2.7-4.46,15.07-14.16,4.17-3.27,7.19-7,11.67-9.34,8.83-4.62,15.57-6.48,26.93-4.33h0Z"/></g></g></svg>